<svg width="3189" height="1197" xmlns="http://www.w3.org/2000/svg" xmlns:xlink="http://www.w3.org/1999/xlink" xml:space="preserve" overflow="hidden"><g transform="translate(-419 -100)"><path d="M2156.5 719C2156.5 704.917 2167.92 693.5 2182 693.5L2491 693.5C2505.08 693.5 2516.5 704.917 2516.5 719L2516.5 821C2516.5 835.083 2505.08 846.5 2491 846.5L2182 846.5C2167.92 846.5 2156.5 835.083 2156.5 821Z" stroke="#70AD47" stroke-width="4.58333" stroke-miterlimit="8" fill="#70AD47" fill-rule="evenodd"/><text fill="#FFFFFF" font-family="Calibri,Calibri_MSFontService,sans-serif" font-weight="400" font-size="37" transform="matrix(1 0 0 1 2205.9 759)">Head  </text><text fill="#FFFFFF" font-family="Calibri,Calibri_MSFontService,sans-serif" font-weight="400" font-size="37" transform="matrix(1 0 0 1 2300.43 759)">to</text><text fill="#FFFFFF" font-family="Calibri,Calibri_MSFontService,sans-serif" font-weight="400" font-size="37" transform="matrix(1 0 0 1 2339.96 759)">Window</text><text fill="#FFFFFF" font-family="Calibri,Calibri_MSFontService,sans-serif" font-weight="400" font-size="37" transform="matrix(1 0 0 1 2245.43 803)">Coordinates</text><path d="M1460.5 720C1460.5 705.917 1471.92 694.5 1486 694.5L1795 694.5C1809.08 694.5 1820.5 705.917 1820.5 720L1820.5 821.999C1820.5 836.083 1809.08 847.5 1795 847.5L1486 847.5C1471.92 847.5 1460.5 836.083 1460.5 821.999Z" stroke="#ED7D31" stroke-width="4.58333" stroke-miterlimit="8" fill="#ED7D31" fill-rule="evenodd"/><text fill="#FFFFFF" font-family="Calibri,Calibri_MSFontService,sans-serif" font-weight="400" font-size="37" transform="matrix(1 0 0 1 1515.42 760)">Head  </text><text fill="#FFFFFF" font-family="Calibri,Calibri_MSFontService,sans-serif" font-weight="400" font-size="37" transform="matrix(1 0 0 1 1609.95 760)">to</text><text fill="#FFFFFF" font-family="Calibri,Calibri_MSFontService,sans-serif" font-weight="400" font-size="37" transform="matrix(1 0 0 1 1649.48 760)">Camera</text><text fill="#FFFFFF" font-family="Calibri,Calibri_MSFontService,sans-serif" font-weight="400" font-size="37" transform="matrix(1 0 0 1 1549.52 804)">Coordinates</text><path d="M1023.5 586.167C1023.5 574.201 1033.2 564.5 1045.17 564.5L1312.83 564.5C1324.8 564.5 1334.5 574.201 1334.5 586.167L1334.5 672.833C1334.5 684.799 1324.8 694.5 1312.83 694.5L1045.17 694.5C1033.2 694.5 1023.5 684.799 1023.5 672.833Z" stroke="#ED7D31" stroke-width="4.58333" stroke-miterlimit="8" fill="#ED7D31" fill-rule="evenodd"/><text fill="#FFFFFF" font-family="Calibri,Calibri_MSFontService,sans-serif" font-weight="400" font-size="37" transform="matrix(1 0 0 1 1071.12 641)">Head </text><text fill="#FFFFFF" font-family="Calibri,Calibri_MSFontService,sans-serif" font-weight="400" font-size="37" transform="matrix(1 0 0 1 1157.64 641)">Distance</text><path d="M1023.5 881.167C1023.5 869.201 1033.2 859.5 1045.17 859.5L1312.83 859.5C1324.8 859.5 1334.5 869.201 1334.5 881.167L1334.5 967.833C1334.5 979.799 1324.8 989.5 1312.83 989.5L1045.17 989.5C1033.2 989.5 1023.5 979.799 1023.5 967.833Z" stroke="#ED7D31" stroke-width="4.58333" stroke-miterlimit="8" fill="#ED7D31" fill-rule="evenodd"/><text fill="#FFFFFF" font-family="Calibri,Calibri_MSFontService,sans-serif" font-weight="400" font-size="37" transform="matrix(1 0 0 1 1092.9 936)">Head Angle </text><path d="M0-3.4375 66.6871-3.4375 66.6871 153.943 63.2496 150.505 103.583 150.505 103.583 157.38 59.8121 157.38 59.8121 0 63.2496 3.4375 0 3.4375ZM98.9993 140.193 126.499 153.943 98.9993 167.693Z" transform="matrix(1 0 0 -1 1344.5 924.443)"/><path d="M1344.5 626.062 1411.19 626.062 1411.19 771.182 1407.75 767.744 1448.08 767.744 1448.08 774.619 1404.31 774.619 1404.31 629.5 1407.75 632.937 1344.5 632.937ZM1443.5 757.432 1471 771.182 1443.5 784.932Z"/><path d="M1023.5 1087.17C1023.5 1075.2 1033.2 1065.5 1045.17 1065.5L1312.83 1065.5C1324.8 1065.5 1334.5 1075.2 1334.5 1087.17L1334.5 1173.83C1334.5 1185.8 1324.8 1195.5 1312.83 1195.5L1045.17 1195.5C1033.2 1195.5 1023.5 1185.8 1023.5 1173.83Z" stroke="#7F7F7F" stroke-width="4.58333" stroke-miterlimit="8" fill="#7F7F7F" fill-rule="evenodd"/><text fill="#FFFFFF" font-family="Calibri,Calibri_MSFontService,sans-serif" font-weight="400" font-size="37" transform="matrix(1 0 0 1 1069.98 1120)">Focal</text><text fill="#FFFFFF" font-family="Calibri,Calibri_MSFontService,sans-serif" font-weight="400" font-size="37" transform="matrix(1 0 0 1 1155.92 1120)">length</text><text fill="#FFFFFF" font-family="Calibri,Calibri_MSFontService,sans-serif" font-weight="400" font-size="37" transform="matrix(1 0 0 1 1259.04 1120)">in </text><text fill="#FFFFFF" font-family="Calibri,Calibri_MSFontService,sans-serif" font-weight="400" font-size="37" transform="matrix(1 0 0 1 1136.16 1164)">Pixels</text><path d="M634.5 884.167C634.5 872.201 644.201 862.5 656.167 862.5L923.833 862.5C935.8 862.5 945.5 872.201 945.5 884.167L945.5 970.833C945.5 982.799 935.8 992.5 923.833 992.5L656.167 992.5C644.201 992.5 634.5 982.799 634.5 970.833Z" stroke="#7F7F7F" stroke-width="4.58333" stroke-miterlimit="8" fill="#7F7F7F" fill-rule="evenodd"/><text fill="#FFFFFF" font-family="Calibri,Calibri_MSFontService,sans-serif" font-weight="400" font-size="37" transform="matrix(1 0 0 1 673.662 917)">„Main“ </text><text fill="#FFFFFF" font-family="Calibri,Calibri_MSFontService,sans-serif" font-weight="400" font-size="37" transform="matrix(1 0 0 1 789.965 917)">Camera</text><text fill="#FFFFFF" font-family="Calibri,Calibri_MSFontService,sans-serif" font-weight="400" font-size="37" transform="matrix(1 0 0 1 743.558 961)">Image</text><path d="M533.5 711.167C533.5 699.201 543.201 689.5 555.167 689.5L822.833 689.5C834.799 689.5 844.5 699.201 844.5 711.167L844.5 797.833C844.5 809.799 834.799 819.5 822.833 819.5L555.167 819.5C543.201 819.5 533.5 809.799 533.5 797.833Z" stroke="#ED7D31" stroke-width="4.58333" stroke-miterlimit="8" fill="#ED7D31" fill-rule="evenodd"/><text fill="#FFFFFF" font-family="Calibri,Calibri_MSFontService,sans-serif" font-weight="400" font-size="37" transform="matrix(1 0 0 1 662.003 722)">Eye </text><text fill="#FFFFFF" font-family="Calibri,Calibri_MSFontService,sans-serif" font-weight="400" font-size="37" transform="matrix(1 0 0 1 590.389 766)">Classification </text><text fill="#FFFFFF" font-family="Calibri,Calibri_MSFontService,sans-serif" font-weight="400" font-size="37" transform="matrix(1 0 0 1 641.951 810)">Cam 1</text><path d="M533.5 473.167C533.5 461.201 543.201 451.5 555.167 451.5L822.833 451.5C834.799 451.5 844.5 461.201 844.5 473.167L844.5 559.833C844.5 571.799 834.799 581.5 822.833 581.5L555.167 581.5C543.201 581.5 533.5 571.799 533.5 559.833Z" stroke="#ED7D31" stroke-width="4.58333" stroke-miterlimit="8" fill="#ED7D31" fill-rule="evenodd"/><text fill="#FFFFFF" font-family="Calibri,Calibri_MSFontService,sans-serif" font-weight="400" font-size="37" transform="matrix(1 0 0 1 662.003 484)">Eye </text><text fill="#FFFFFF" font-family="Calibri,Calibri_MSFontService,sans-serif" font-weight="400" font-size="37" transform="matrix(1 0 0 1 590.388 528)">Classification </text><text fill="#FFFFFF" font-family="Calibri,Calibri_MSFontService,sans-serif" font-weight="400" font-size="37" transform="matrix(1 0 0 1 641.951 572)">Cam 1</text><path d="M844.5 513.063 937.828 513.063 937.828 629.136 934.391 625.699 1001.37 625.699 1001.37 632.574 930.953 632.574 930.953 516.5 934.391 519.938 844.5 519.938ZM996.782 615.386 1024.28 629.136 996.782 642.886Z"/><path d="M0-3.4375 93.3282-3.4375 93.3282 125.339 89.8907 121.902 156.865 121.902 156.865 128.777 86.4532 128.777 86.4532 0 89.8907 3.4375 0 3.4375ZM152.281 111.589 179.781 125.339 152.281 139.089Z" transform="matrix(1 0 0 -1 844.5 754.839)"/><path d="M1023.5 388.167C1023.5 376.201 1033.2 366.5 1045.17 366.5L1312.83 366.5C1324.8 366.5 1334.5 376.201 1334.5 388.167L1334.5 474.833C1334.5 486.799 1324.8 496.5 1312.83 496.5L1045.17 496.5C1033.2 496.5 1023.5 486.799 1023.5 474.833Z" stroke="#7F7F7F" stroke-width="4.58333" stroke-miterlimit="8" fill="#7F7F7F" fill-rule="evenodd"/><text fill="#FFFFFF" font-family="Calibri,Calibri_MSFontService,sans-serif" font-weight="400" font-size="37" transform="matrix(1 0 0 1 1096.62 421)">Calibration</text><text fill="#FFFFFF" font-family="Calibri,Calibri_MSFontService,sans-serif" font-weight="400" font-size="37" transform="matrix(1 0 0 1 1129.28 465)">Matrix</text><path d="M1023.5 193.167C1023.5 181.201 1033.2 171.5 1045.17 171.5L1312.83 171.5C1324.8 171.5 1334.5 181.201 1334.5 193.167L1334.5 279.833C1334.5 291.799 1324.8 301.5 1312.83 301.5L1045.17 301.5C1033.2 301.5 1023.5 291.799 1023.5 279.833Z" stroke="#ED7D31" stroke-width="4.58333" stroke-miterlimit="8" fill="#ED7D31" fill-rule="evenodd"/><text fill="#FFFFFF" font-family="Calibri,Calibri_MSFontService,sans-serif" font-weight="400" font-size="37" transform="matrix(1 0 0 1 1129.85 226)">Stereo </text><text fill="#FFFFFF" font-family="Calibri,Calibri_MSFontService,sans-serif" font-weight="400" font-size="37" transform="matrix(1 0 0 1 1096.62 270)">Calibration</text><path d="M1182.94 301.5 1182.94 343.609 1176.06 343.609 1176.06 301.5ZM1193.25 339.025 1179.5 366.526 1165.75 339.026Z"/><path d="M1182.94 496.5 1182.94 540.965 1176.06 540.965 1176.06 496.5ZM1193.25 536.381 1179.5 563.881 1165.75 536.381Z"/><path d="M0.099994-3.43605 55.9405-1.81101 55.7405 5.06109-0.099994 3.43605ZM51.659-12.2525 78.7474 2.29167 50.8591 15.2359Z" transform="matrix(1 0 0 -1 954.5 926.792)"/><path d="M3.4375-1.64043e-05 3.43775 52.708-3.43725 52.708-3.4375 1.64043e-05ZM13.7502 48.1246 0.000360892 75.6246-13.7498 48.1247Z" transform="matrix(1 0 0 -1 1179.5 1065.12)"/><path d="M0.0123813-3.43748 313.455-2.3085 313.43 4.56645-0.0123813 3.43748ZM308.908-12.6374 336.359 1.21152 308.809 14.8624Z" transform="matrix(1 0 0 -1 1830.5 770.712)"/><path d="M2737.5 457.167C2737.5 442.991 2748.99 431.5 2763.17 431.5L3070.83 431.5C3085.01 431.5 3096.5 442.991 3096.5 457.167L3096.5 559.833C3096.5 574.008 3085.01 585.5 3070.83 585.5L2763.17 585.5C2748.99 585.5 2737.5 574.008 2737.5 559.833Z" stroke="#70AD47" stroke-width="4.58333" stroke-miterlimit="8" fill="#70AD47" fill-rule="evenodd"/><text fill="#FFFFFF" font-family="Calibri,Calibri_MSFontService,sans-serif" font-weight="400" font-size="37" transform="matrix(1 0 0 1 2793.77 520)">„</text><text fill="#FFFFFF" font-family="Calibri,Calibri_MSFontService,sans-serif" font-weight="400" font-size="37" transform="matrix(1 0 0 1 2809.24 520)">Window</text><text fill="#FFFFFF" font-family="Calibri,Calibri_MSFontService,sans-serif" font-weight="400" font-size="37" transform="matrix(1 0 0 1 2935.28 520)">“ </text><text fill="#FFFFFF" font-family="Calibri,Calibri_MSFontService,sans-serif" font-weight="400" font-size="37" transform="matrix(1 0 0 1 2958.77 520)">Mask</text><path d="M2001.5 466.167C2001.5 454.201 2011.2 444.5 2023.17 444.5L2289.83 444.5C2301.8 444.5 2311.5 454.201 2311.5 466.167L2311.5 552.832C2311.5 564.799 2301.8 574.5 2289.83 574.5L2023.17 574.5C2011.2 574.5 2001.5 564.799 2001.5 552.832Z" stroke="#7F7F7F" stroke-width="4.58333" stroke-miterlimit="8" fill="#7F7F7F" fill-rule="evenodd"/><text fill="#FFFFFF" font-family="Calibri,Calibri_MSFontService,sans-serif" font-weight="400" font-size="37" transform="matrix(1 0 0 1 2055.92 499)">Main </text><text fill="#FFFFFF" font-family="Calibri,Calibri_MSFontService,sans-serif" font-weight="400" font-size="37" transform="matrix(1 0 0 1 2141.29 499)">Camera</text><text fill="#FFFFFF" font-family="Calibri,Calibri_MSFontService,sans-serif" font-weight="400" font-size="37" transform="matrix(1 0 0 1 2043.02 543)">to</text><text fill="#FFFFFF" font-family="Calibri,Calibri_MSFontService,sans-serif" font-weight="400" font-size="37" transform="matrix(1 0 0 1 2082.55 543)">Window</text><text fill="#FFFFFF" font-family="Calibri,Calibri_MSFontService,sans-serif" font-weight="400" font-size="37" transform="matrix(1 0 0 1 2216.61 543)">Pos</text><path d="M2369.5 466.167C2369.5 454.201 2379.2 444.5 2391.17 444.5L2657.83 444.5C2669.8 444.5 2679.5 454.201 2679.5 466.167L2679.5 552.833C2679.5 564.799 2669.8 574.5 2657.83 574.5L2391.17 574.5C2379.2 574.5 2369.5 564.799 2369.5 552.833Z" stroke="#7F7F7F" stroke-width="4.58333" stroke-miterlimit="8" fill="#7F7F7F" fill-rule="evenodd"/><text fill="#FFFFFF" font-family="Calibri,Calibri_MSFontService,sans-serif" font-weight="400" font-size="37" transform="matrix(1 0 0 1 2460.98 499)">Window</text><text fill="#FFFFFF" font-family="Calibri,Calibri_MSFontService,sans-serif" font-weight="400" font-size="37" transform="matrix(1 0 0 1 2444.06 543)">Dimension</text><path d="M0-3.4375 62.7337-3.4375 62.7337 179.782 59.2962 176.344 95.6755 176.344 95.6755 183.219 55.8587 183.219 55.8587 0 59.2962 3.4375 0 3.4375ZM91.0921 166.032 118.592 179.782 91.0921 193.532Z" transform="matrix(1.83697e-16 1 1 -1.83697e-16 2166.5 574.5)"/><path d="M2537.97 574.5 2537.97 637.234 2346.5 637.234 2349.94 633.796 2349.94 670.176 2343.06 670.176 2343.06 630.359 2534.53 630.359 2531.09 633.796 2531.09 574.5ZM2360.25 665.592 2346.5 693.092 2332.75 665.592Z"/><path d="M2737.5 715C2737.5 700.917 2748.92 689.5 2763 689.5L3072 689.5C3086.08 689.5 3097.5 700.917 3097.5 715L3097.5 817C3097.5 831.083 3086.08 842.5 3072 842.5L2763 842.5C2748.92 842.5 2737.5 831.083 2737.5 817Z" stroke="#70AD47" stroke-width="4.58333" stroke-miterlimit="8" fill="#70AD47" fill-rule="evenodd"/><text fill="#FFFFFF" font-family="Calibri,Calibri_MSFontService,sans-serif" font-weight="400" font-size="37" transform="matrix(1 0 0 1 2854.21 756)">Window</text><text fill="#FFFFFF" font-family="Calibri,Calibri_MSFontService,sans-serif" font-weight="400" font-size="37" transform="matrix(1 0 0 1 2839.32 800)">Animation</text><path d="M2761.5 984.167C2761.5 972.201 2771.2 962.5 2783.17 962.5L3050.83 962.5C3062.8 962.5 3072.5 972.201 3072.5 984.167L3072.5 1070.83C3072.5 1082.8 3062.8 1092.5 3050.83 1092.5L2783.17 1092.5C2771.2 1092.5 2761.5 1082.8 2761.5 1070.83Z" stroke="#7F7F7F" stroke-width="4.58333" stroke-miterlimit="8" fill="#7F7F7F" fill-rule="evenodd"/><text fill="#FFFFFF" font-family="Calibri,Calibri_MSFontService,sans-serif" font-weight="400" font-size="37" transform="matrix(1 0 0 1 2839.6 1017)">Rendering </text><text fill="#FFFFFF" font-family="Calibri,Calibri_MSFontService,sans-serif" font-weight="400" font-size="37" transform="matrix(1 0 0 1 2821.84 1061)">Engine Asset</text><path d="M0.0542723-3.43707 198.86-0.297869 198.752 6.57627-0.0542723 3.43707ZM194.44-10.6814 221.72 3.50102 194.006 16.8151Z" transform="matrix(1 0 0 -1 2526.5 770.001)"/><path d="M0.0583181-3.43701 34.551-2.85174 34.4344 4.02227-0.0583181 3.43701ZM30.1433-13.2405 57.4061 0.974049 29.6768 14.2555Z" transform="matrix(1 0 0 -1 2689.5 509.474)"/><path d="M2929.94 585.472 2930.61 666.99 2923.73 667.047 2923.06 585.528ZM2940.88 662.322 2927.36 689.935 2913.38 662.549Z"/><path d="M3.43741-0.0246738 4.13293 96.8705-2.7419 96.9198-3.43741 0.0246738ZM14.4123 92.2132 0.860007 119.811-13.087 92.4106Z" transform="matrix(1 0 0 -1 2926.5 962.311)"/><path d="M3186.5 715.001C3186.5 700.917 3197.92 689.5 3212 689.5L3520 689.5C3534.08 689.5 3545.5 700.917 3545.5 715.001L3545.5 816.999C3545.5 831.083 3534.08 842.5 3520 842.5L3212 842.5C3197.92 842.5 3186.5 831.083 3186.5 816.999Z" stroke="#70AD47" stroke-width="4.58333" stroke-miterlimit="8" fill="#70AD47" fill-rule="evenodd"/><text fill="#FFFFFF" font-family="Calibri,Calibri_MSFontService,sans-serif" font-weight="400" font-size="37" transform="matrix(1 0 0 1 3272.78 756)">(</text><text fill="#FFFFFF" font-family="Calibri,Calibri_MSFontService,sans-serif" font-weight="400" font-size="37" transform="matrix(1 0 0 1 3283.66 756)">Un</text><text fill="#FFFFFF" font-family="Calibri,Calibri_MSFontService,sans-serif" font-weight="400" font-size="37" transform="matrix(1 0 0 1 3326.63 756)">)Warped </text><text fill="#FFFFFF" font-family="Calibri,Calibri_MSFontService,sans-serif" font-weight="400" font-size="37" transform="matrix(1 0 0 1 3245 800)">Window</text><text fill="#FFFFFF" font-family="Calibri,Calibri_MSFontService,sans-serif" font-weight="400" font-size="37" transform="matrix(1 0 0 1 3379.06 800)">Output</text><path d="M3107.5 763.063 3173.1 763.063 3173.1 769.938 3107.5 769.938ZM3168.52 752.75 3196.02 766.5 3168.52 780.25Z"/><path d="M421.5 300.504C421.5 191.149 510.149 102.5 619.504 102.5L1754.5 102.5C1863.85 102.5 1952.5 191.149 1952.5 300.504L1952.5 1092.5C1952.5 1201.85 1863.85 1290.5 1754.5 1290.5L619.504 1290.5C510.149 1290.5 421.5 1201.85 421.5 1092.5Z" stroke="#ED7D31" stroke-width="4.58333" stroke-miterlimit="8" fill="none" fill-rule="evenodd"/><path d="M1981.5 304.504C1981.5 195.15 2070.15 106.5 2179.5 106.5L3407.5 106.5C3516.85 106.5 3605.5 195.15 3605.5 304.504L3605.5 1096.5C3605.5 1205.85 3516.85 1294.5 3407.5 1294.5L2179.5 1294.5C2070.15 1294.5 1981.5 1205.85 1981.5 1096.5Z" stroke="#70AD47" stroke-width="4.58333" stroke-miterlimit="8" fill="none" fill-rule="evenodd"/></g></svg>